<svg width="1139" height="506" viewBox="0 0 1139 506" fill="none" xmlns="http://www.w3.org/2000/svg">
<path d="M992.514 278.634V293.674H1016.17V301.883H992.514V335.638C992.514 338.049 992.82 340.039 993.432 341.608C994.045 343.177 994.887 344.421 995.958 345.34C997.03 346.296 998.255 346.966 999.632 347.349C1001.05 347.731 1002.54 347.923 1004.11 347.923C1005.26 347.923 1006.44 347.865 1007.67 347.751C1008.89 347.598 1010.1 347.425 1011.29 347.234C1012.43 347.043 1013.51 346.851 1014.5 346.66C1015.53 346.43 1016.38 346.239 1017.03 346.086L1018.52 353.606C1017.64 354.142 1016.57 354.62 1015.3 355.041C1014.04 355.424 1012.66 355.749 1011.17 356.017C1009.68 356.323 1008.09 356.553 1006.41 356.706C1004.76 356.859 1003.12 356.936 1001.47 356.936C998.714 356.936 996.131 356.553 993.72 355.787C991.347 354.984 989.28 353.721 987.52 351.999C985.759 350.315 984.362 348.133 983.329 345.454C982.334 342.737 981.837 339.465 981.837 335.638V301.883H965.533V293.674H981.837V278.634H992.514Z" fill="white"/>
<path d="M923.224 348.324C925.138 348.324 926.994 348.018 928.793 347.406C930.63 346.793 932.256 345.932 933.672 344.822C935.088 343.751 936.217 342.488 937.059 341.033C937.939 339.541 938.399 337.934 938.437 336.211H948.483C948.445 338.967 947.717 341.608 946.301 344.133C944.924 346.621 943.068 348.802 940.733 350.678C938.399 352.591 935.72 354.122 932.696 355.27C929.673 356.38 926.515 356.935 923.224 356.935C918.517 356.935 914.403 356.093 910.882 354.409C907.361 352.725 904.433 350.448 902.099 347.578C899.726 344.746 897.946 341.474 896.76 337.761C895.574 334.011 894.98 330.069 894.98 325.936V323.525C894.98 319.43 895.574 315.507 896.76 311.756C897.946 308.006 899.726 304.695 902.099 301.825C904.433 298.993 907.361 296.735 910.882 295.051C914.403 293.367 918.517 292.525 923.224 292.525C926.898 292.525 930.266 293.119 933.328 294.305C936.428 295.453 939.107 297.022 941.365 299.012C943.584 301.041 945.326 303.433 946.588 306.188C947.851 308.944 948.483 311.89 948.483 315.029H938.437C938.399 313.153 937.978 311.393 937.174 309.747C936.408 308.063 935.356 306.59 934.017 305.327C932.677 304.064 931.07 303.069 929.194 302.342C927.357 301.615 925.367 301.251 923.224 301.251C919.933 301.251 917.158 301.921 914.9 303.26C912.681 304.562 910.882 306.265 909.504 308.369C908.126 310.513 907.131 312.905 906.519 315.545C905.945 318.186 905.658 320.846 905.658 323.525V325.936C905.658 328.653 905.945 331.351 906.519 334.03C907.131 336.671 908.126 339.043 909.504 341.148C910.844 343.291 912.623 345.033 914.843 346.372C917.101 347.673 919.895 348.324 923.224 348.324Z" fill="white"/>
<path d="M866.968 355.787C866.547 354.983 866.203 353.988 865.935 352.802C865.705 351.577 865.533 350.314 865.418 349.013C864.347 350.085 863.141 351.099 861.802 352.055C860.5 353.012 859.065 353.854 857.496 354.581C855.889 355.308 854.186 355.883 852.387 356.303C850.588 356.724 848.675 356.935 846.646 356.935C843.355 356.935 840.37 356.457 837.691 355.5C835.05 354.543 832.812 353.242 830.975 351.596C829.099 349.989 827.645 348.075 826.612 345.856C825.617 343.598 825.119 341.167 825.119 338.565C825.119 335.159 825.789 332.174 827.128 329.61C828.506 327.046 830.439 324.902 832.926 323.18C835.414 321.496 838.399 320.233 841.882 319.391C845.403 318.549 849.325 318.128 853.65 318.128H865.246V313.249C865.246 311.374 864.902 309.69 864.213 308.197C863.524 306.705 862.548 305.423 861.285 304.351C860.022 303.318 858.472 302.514 856.635 301.94C854.836 301.366 852.808 301.079 850.55 301.079C848.445 301.079 846.551 301.347 844.867 301.883C843.221 302.418 841.824 303.126 840.676 304.007C839.528 304.887 838.629 305.939 837.978 307.164C837.366 308.35 837.06 309.594 837.06 310.895H826.382C826.42 308.637 826.994 306.418 828.104 304.236C829.252 302.055 830.898 300.084 833.041 298.323C835.146 296.601 837.71 295.204 840.734 294.133C843.795 293.061 847.259 292.525 851.124 292.525C854.645 292.525 857.917 292.966 860.941 293.846C863.964 294.688 866.585 295.97 868.805 297.692C870.987 299.452 872.709 301.634 873.972 304.236C875.235 306.839 875.866 309.881 875.866 313.364V342.239C875.866 344.306 876.057 346.506 876.44 348.841C876.823 351.137 877.359 353.146 878.048 354.868V355.787H866.968ZM848.196 347.693C850.263 347.693 852.196 347.425 853.994 346.889C855.793 346.353 857.439 345.645 858.931 344.765C860.386 343.885 861.649 342.89 862.72 341.78C863.792 340.632 864.634 339.445 865.246 338.221V325.649H855.372C851.698 325.649 848.483 325.974 845.728 326.625C843.011 327.237 840.848 328.194 839.241 329.495C838.093 330.413 837.213 331.504 836.6 332.767C836.026 334.03 835.739 335.465 835.739 337.072C835.739 338.603 835.988 340.019 836.486 341.321C837.021 342.622 837.806 343.732 838.839 344.65C839.872 345.607 841.174 346.353 842.743 346.889C844.312 347.425 846.13 347.693 848.196 347.693Z" fill="white"/>
<path d="M755.486 379.668V293.674H765.188L765.705 300.447C766.547 299.376 767.465 298.419 768.46 297.577C769.455 296.697 770.527 295.951 771.675 295.338C773.282 294.42 775.062 293.731 777.014 293.272C779.004 292.774 781.128 292.525 783.386 292.525C787.366 292.525 790.887 293.31 793.948 294.879C797.01 296.448 799.574 298.63 801.641 301.423C803.707 304.217 805.277 307.566 806.348 311.469C807.42 315.335 807.955 319.583 807.955 324.214V325.419C807.955 329.858 807.42 334.011 806.348 337.876C805.277 341.703 803.707 345.033 801.641 347.865C799.574 350.697 797.01 352.917 793.948 354.524C790.925 356.131 787.461 356.935 783.558 356.935C781.185 356.935 778.965 356.686 776.899 356.189C774.87 355.691 773.033 354.983 771.388 354.065C770.393 353.491 769.455 352.859 768.575 352.17C767.695 351.443 766.872 350.659 766.106 349.817V379.668H755.486ZM797.335 324.214C797.335 321.19 796.991 318.32 796.302 315.603C795.651 312.847 794.637 310.417 793.26 308.312C791.843 306.245 790.064 304.6 787.921 303.375C785.778 302.15 783.213 301.538 780.228 301.538C778.583 301.538 777.052 301.729 775.636 302.112C774.258 302.495 773.014 303.05 771.904 303.777C770.68 304.504 769.589 305.403 768.632 306.475C767.676 307.547 766.834 308.733 766.106 310.034V339.943C766.757 341.091 767.503 342.162 768.345 343.157C769.187 344.153 770.144 344.994 771.216 345.683C772.44 346.487 773.799 347.119 775.291 347.578C776.822 348.037 778.506 348.267 780.343 348.267C783.29 348.267 785.835 347.654 787.978 346.43C790.121 345.167 791.882 343.483 793.26 341.378C794.637 339.273 795.651 336.843 796.302 334.087C796.991 331.332 797.335 328.442 797.335 325.419V324.214Z" fill="white"/>
<path d="M689.813 293.674L690.1 299.529C691.363 297.347 693.008 295.644 695.037 294.42C697.103 293.195 699.591 292.564 702.499 292.525C704.145 292.525 705.618 292.717 706.92 293.099C708.259 293.444 709.426 293.961 710.421 294.649C711.148 295.185 711.799 295.836 712.373 296.601C712.985 297.367 713.502 298.228 713.923 299.184C714.459 298.304 715.09 297.481 715.818 296.716C716.545 295.951 717.329 295.281 718.171 294.707C719.243 294.056 720.429 293.54 721.73 293.157C723.07 292.774 724.524 292.564 726.093 292.525C728.236 292.525 730.169 292.851 731.891 293.501C733.613 294.114 735.068 295.032 736.254 296.257C737.555 297.635 738.55 299.433 739.239 301.653C739.928 303.834 740.272 306.418 740.272 309.403V355.787H730.169V309.288C730.169 307.987 730.016 306.839 729.71 305.844C729.404 304.849 728.964 304.026 728.389 303.375C727.777 302.763 727.012 302.304 726.093 301.997C725.213 301.691 724.18 301.538 722.993 301.538C721.73 301.538 720.64 301.71 719.721 302.055C718.803 302.399 718.037 302.858 717.425 303.433C716.813 304.045 716.334 304.753 715.99 305.557C715.645 306.322 715.416 307.183 715.301 308.14C715.301 308.331 715.301 308.523 715.301 308.714C715.301 308.867 715.301 309.058 715.301 309.288V355.787H705.197V309.231C705.197 307.929 705.044 306.781 704.738 305.786C704.47 304.791 704.03 303.968 703.418 303.318C702.844 302.705 702.117 302.265 701.236 301.997C700.394 301.691 699.399 301.538 698.251 301.538C696.988 301.538 695.879 301.691 694.922 301.997C694.003 302.265 693.219 302.667 692.568 303.203C692.071 303.624 691.63 304.102 691.248 304.638C690.903 305.174 690.616 305.748 690.387 306.36V355.787H680.283V293.674H689.813Z" fill="white"/>
<path d="M615.988 293.676H647.734V346.604H667.998V355.789H615.988V346.604H637.114V302.918H615.988V293.676ZM635.736 277.372C635.736 276.454 635.87 275.593 636.138 274.789C636.444 273.986 636.903 273.297 637.516 272.723C638.013 272.225 638.645 271.842 639.41 271.574C640.214 271.268 641.113 271.115 642.108 271.115C643.103 271.115 643.983 271.268 644.749 271.574C645.514 271.842 646.146 272.225 646.643 272.723C647.255 273.258 647.715 273.928 648.021 274.732C648.327 275.535 648.48 276.416 648.48 277.372C648.48 279.095 647.944 280.53 646.873 281.678C645.801 282.826 644.213 283.4 642.108 283.4C639.965 283.4 638.358 282.826 637.286 281.678C636.253 280.53 635.736 279.095 635.736 277.372Z" fill="white"/>
<path d="M474.77 267.613H506.515V346.604H526.779V355.789H474.77V346.604H495.895V276.856H474.77V267.613Z" fill="white"/>
<path d="M443.314 355.787C442.893 354.983 442.548 353.988 442.281 352.802C442.051 351.577 441.879 350.314 441.764 349.013C440.692 350.085 439.487 351.099 438.147 352.055C436.846 353.012 435.411 353.854 433.842 354.581C432.234 355.308 430.531 355.883 428.733 356.303C426.934 356.724 425.02 356.935 422.992 356.935C419.701 356.935 416.716 356.457 414.037 355.5C411.396 354.543 409.157 353.242 407.32 351.596C405.445 349.989 403.991 348.075 402.957 345.856C401.962 343.598 401.465 341.167 401.465 338.565C401.465 335.159 402.135 332.174 403.474 329.61C404.852 327.046 406.784 324.902 409.272 323.18C411.76 321.496 414.745 320.233 418.227 319.391C421.748 318.549 425.671 318.128 429.996 318.128H441.592V313.249C441.592 311.374 441.247 309.69 440.558 308.197C439.87 306.705 438.894 305.423 437.631 304.351C436.368 303.318 434.818 302.514 432.981 301.94C431.182 301.366 429.154 301.079 426.896 301.079C424.791 301.079 422.896 301.347 421.213 301.883C419.567 302.418 418.17 303.126 417.022 304.007C415.874 304.887 414.974 305.939 414.324 307.164C413.711 308.35 413.405 309.594 413.405 310.895H402.728C402.766 308.637 403.34 306.418 404.45 304.236C405.598 302.055 407.244 300.084 409.387 298.323C411.492 296.601 414.056 295.204 417.079 294.133C420.141 293.061 423.604 292.525 427.47 292.525C430.991 292.525 434.263 292.966 437.286 293.846C440.31 294.688 442.931 295.97 445.151 297.692C447.332 299.452 449.054 301.634 450.317 304.236C451.58 306.839 452.212 309.881 452.212 313.364V342.239C452.212 344.306 452.403 346.506 452.786 348.841C453.169 351.137 453.704 353.146 454.393 354.868V355.787H443.314ZM424.542 347.693C426.609 347.693 428.541 347.425 430.34 346.889C432.139 346.353 433.784 345.645 435.277 344.765C436.731 343.885 437.994 342.89 439.066 341.78C440.137 340.632 440.979 339.445 441.592 338.221V325.649H431.718C428.044 325.649 424.829 325.974 422.074 326.625C419.356 327.237 417.194 328.194 415.587 329.495C414.439 330.413 413.558 331.504 412.946 332.767C412.372 334.03 412.085 335.465 412.085 337.072C412.085 338.603 412.334 340.019 412.831 341.321C413.367 342.622 414.152 343.732 415.185 344.65C416.218 345.607 417.519 346.353 419.089 346.889C420.658 347.425 422.475 347.693 424.542 347.693Z" fill="white"/>
<path d="M333.551 293.676H365.296V346.604H385.561V355.789H333.551V346.604H354.676V302.918H333.551V293.676ZM353.298 277.372C353.298 276.454 353.432 275.593 353.7 274.789C354.006 273.986 354.466 273.297 355.078 272.723C355.576 272.225 356.207 271.842 356.972 271.574C357.776 271.268 358.675 271.115 359.671 271.115C360.666 271.115 361.546 271.268 362.311 271.574C363.077 271.842 363.708 272.225 364.206 272.723C364.818 273.258 365.277 273.928 365.583 274.732C365.889 275.535 366.043 276.416 366.043 277.372C366.043 279.095 365.507 280.53 364.435 281.678C363.364 282.826 361.775 283.4 359.671 283.4C357.527 283.4 355.92 282.826 354.848 281.678C353.815 280.53 353.298 279.095 353.298 277.372Z" fill="white"/>
<path d="M287.74 348.324C289.653 348.324 291.51 348.018 293.308 347.406C295.145 346.793 296.772 345.932 298.188 344.822C299.604 343.751 300.733 342.488 301.575 341.033C302.455 339.541 302.914 337.934 302.952 336.211H312.998C312.96 338.967 312.233 341.608 310.817 344.133C309.439 346.621 307.583 348.802 305.249 350.678C302.914 352.591 300.235 354.122 297.212 355.27C294.188 356.38 291.031 356.935 287.74 356.935C283.033 356.935 278.918 356.093 275.398 354.409C271.877 352.725 268.949 350.448 266.614 347.578C264.242 344.746 262.462 341.474 261.276 337.761C260.089 334.011 259.496 330.069 259.496 325.936V323.525C259.496 319.43 260.089 315.507 261.276 311.756C262.462 308.006 264.242 304.695 266.614 301.825C268.949 298.993 271.877 296.735 275.398 295.051C278.918 293.367 283.033 292.525 287.74 292.525C291.414 292.525 294.782 293.119 297.843 294.305C300.943 295.453 303.622 297.022 305.88 299.012C308.1 301.041 309.841 303.433 311.104 306.188C312.367 308.944 312.998 311.89 312.998 315.029H302.952C302.914 313.153 302.493 311.393 301.69 309.747C300.924 308.063 299.872 306.59 298.532 305.327C297.193 304.064 295.585 303.069 293.71 302.342C291.873 301.615 289.883 301.251 287.74 301.251C284.449 301.251 281.674 301.921 279.416 303.26C277.196 304.562 275.398 306.265 274.02 308.369C272.642 310.513 271.647 312.905 271.035 315.545C270.461 318.186 270.174 320.846 270.174 323.525V325.936C270.174 328.653 270.461 331.351 271.035 334.03C271.647 336.671 272.642 339.043 274.02 341.148C275.359 343.291 277.139 345.033 279.359 346.372C281.617 347.673 284.41 348.324 287.74 348.324Z" fill="white"/>
<path d="M187.68 324.156C187.68 319.678 188.33 315.526 189.631 311.699C190.933 307.834 192.808 304.485 195.257 301.653C197.668 298.821 200.615 296.601 204.098 294.994C207.58 293.348 211.503 292.525 215.866 292.525C220.267 292.525 224.209 293.348 227.692 294.994C231.213 296.601 234.198 298.821 236.647 301.653C239.058 304.485 240.914 307.834 242.215 311.699C243.517 315.526 244.167 319.678 244.167 324.156V325.419C244.167 329.897 243.517 334.049 242.215 337.876C240.914 341.703 239.058 345.033 236.647 347.865C234.198 350.697 231.232 352.917 227.749 354.524C224.266 356.131 220.344 356.935 215.981 356.935C211.58 356.935 207.619 356.131 204.098 354.524C200.615 352.917 197.668 350.697 195.257 347.865C192.808 345.033 190.933 341.703 189.631 337.876C188.33 334.049 187.68 329.897 187.68 325.419V324.156ZM198.3 325.419C198.3 328.481 198.663 331.408 199.391 334.202C200.118 336.958 201.228 339.388 202.72 341.493C204.174 343.598 206.011 345.262 208.231 346.487C210.451 347.712 213.034 348.324 215.981 348.324C218.889 348.324 221.434 347.712 223.616 346.487C225.836 345.262 227.692 343.598 229.184 341.493C230.639 339.388 231.729 336.958 232.456 334.202C233.184 331.408 233.547 328.481 233.547 325.419V324.156C233.547 321.133 233.164 318.243 232.399 315.488C231.672 312.694 230.581 310.245 229.127 308.14C227.634 306.035 225.778 304.37 223.558 303.145C221.377 301.883 218.813 301.251 215.866 301.251C212.919 301.251 210.355 301.883 208.174 303.145C205.992 304.37 204.174 306.035 202.72 308.14C201.228 310.245 200.118 312.694 199.391 315.488C198.663 318.243 198.3 321.133 198.3 324.156V325.419Z" fill="white"/>
<path d="M161.333 339.311C161.333 338.048 161.084 336.919 160.586 335.924C160.089 334.891 159.247 333.953 158.061 333.111C156.874 332.269 155.305 331.504 153.353 330.815C151.402 330.088 148.971 329.437 146.063 328.863C142.504 328.136 139.251 327.256 136.304 326.223C133.395 325.189 130.908 323.946 128.841 322.491C126.736 321.075 125.11 319.411 123.961 317.497C122.813 315.545 122.239 313.287 122.239 310.723C122.239 308.197 122.832 305.844 124.019 303.662C125.205 301.442 126.87 299.51 129.013 297.864C131.156 296.219 133.701 294.917 136.648 293.961C139.633 293.004 142.905 292.525 146.465 292.525C150.292 292.525 153.736 293.023 156.798 294.018C159.859 295.013 162.462 296.391 164.605 298.151C166.748 299.912 168.394 301.978 169.542 304.351C170.728 306.686 171.321 309.211 171.321 311.929H160.701C160.701 310.589 160.357 309.288 159.668 308.025C158.979 306.724 158.022 305.576 156.798 304.581C155.573 303.586 154.08 302.782 152.32 302.17C150.598 301.557 148.646 301.251 146.465 301.251C144.207 301.251 142.217 301.5 140.494 301.997C138.81 302.495 137.414 303.165 136.304 304.007C135.156 304.849 134.295 305.824 133.72 306.934C133.146 308.044 132.859 309.192 132.859 310.379C132.859 311.603 133.089 312.694 133.548 313.651C134.007 314.608 134.811 315.469 135.959 316.234C137.069 316.999 138.562 317.688 140.437 318.301C142.351 318.913 144.762 319.506 147.67 320.08C151.497 320.884 154.922 321.822 157.946 322.893C160.969 323.926 163.514 325.17 165.581 326.625C167.647 328.117 169.217 329.839 170.288 331.791C171.398 333.743 171.953 336.001 171.953 338.565C171.953 341.321 171.321 343.827 170.058 346.085C168.834 348.343 167.112 350.276 164.892 351.883C162.672 353.491 160.012 354.734 156.912 355.615C153.813 356.495 150.426 356.935 146.752 356.935C142.542 356.935 138.791 356.38 135.5 355.27C132.209 354.122 129.434 352.61 127.176 350.735C124.88 348.898 123.119 346.755 121.895 344.306C120.708 341.856 120.115 339.311 120.115 336.671H130.735C130.888 338.852 131.462 340.689 132.458 342.182C133.491 343.674 134.773 344.88 136.304 345.798C137.796 346.717 139.461 347.367 141.298 347.75C143.135 348.133 144.953 348.324 146.752 348.324C149.584 348.324 152.052 347.999 154.157 347.348C156.262 346.659 157.908 345.722 159.094 344.535C159.821 343.808 160.376 343.004 160.759 342.124C161.141 341.244 161.333 340.306 161.333 339.311Z" fill="white"/>
<path d="M571.155 215.322C566.793 215.322 562.774 214.575 559.1 213.083C555.464 211.59 552.345 209.505 549.743 206.826C547.141 204.147 545.112 200.97 543.658 197.296C542.204 193.622 541.477 189.623 541.477 185.298V182.887C541.477 177.874 542.28 173.396 543.888 169.454C545.495 165.474 547.638 162.106 550.317 159.351C552.958 156.634 555.962 154.548 559.33 153.094C562.736 151.639 566.219 150.912 569.778 150.912C574.255 150.912 578.159 151.697 581.489 153.266C584.856 154.797 587.65 156.921 589.87 159.638C592.09 162.393 593.735 165.627 594.807 169.339C595.917 173.052 596.472 177.07 596.472 181.395V186.159H552.097V186.561C552.365 189.585 552.958 192.244 553.876 194.541C554.833 196.837 556.134 198.865 557.78 200.626C559.464 202.501 561.492 203.974 563.865 205.046C566.238 206.118 568.859 206.653 571.73 206.653C575.518 206.653 578.886 205.888 581.833 204.357C584.78 202.826 587.229 200.798 589.181 198.272L595.668 203.324C593.601 206.462 590.501 209.256 586.368 211.705C582.273 214.116 577.202 215.322 571.155 215.322ZM569.778 159.638C567.635 159.638 565.606 160.04 563.693 160.843C561.779 161.609 560.057 162.738 558.526 164.23C556.995 165.761 555.694 167.636 554.623 169.856C553.589 172.038 552.862 174.563 552.441 177.434H585.851V176.917C585.851 175.004 585.488 172.956 584.761 170.775C584.034 168.555 583.019 166.641 581.718 165.034C580.417 163.427 578.771 162.125 576.781 161.13C574.829 160.135 572.495 159.638 569.778 159.638Z" fill="white"/>
<path d="M473.105 214.174V152.06H482.635L483.381 161.245C484.3 159.944 485.295 158.758 486.366 157.686C487.476 156.576 488.643 155.619 489.868 154.816C491.705 153.591 493.695 152.653 495.838 152.003C498.02 151.314 500.316 150.95 502.727 150.912C505.98 150.912 508.927 151.371 511.567 152.29C514.246 153.208 516.524 154.644 518.399 156.595C520.274 158.547 521.709 161.035 522.704 164.058C523.738 167.043 524.254 170.602 524.254 174.736V214.174H513.634V174.965C513.634 172.21 513.328 169.875 512.716 167.962C512.103 166.048 511.204 164.498 510.018 163.312C508.793 162.125 507.3 161.264 505.54 160.729C503.818 160.193 501.828 159.925 499.57 159.925C497.618 159.925 495.8 160.212 494.116 160.786C492.432 161.322 490.882 162.068 489.466 163.025C488.318 163.867 487.246 164.843 486.251 165.952C485.295 167.062 484.453 168.287 483.726 169.626V214.174H473.105Z" fill="white"/>
<path d="M399.512 182.543C399.512 178.065 400.162 173.913 401.463 170.086C402.765 166.22 404.64 162.872 407.089 160.04C409.5 157.208 412.447 154.988 415.93 153.381C419.412 151.735 423.335 150.912 427.698 150.912C432.099 150.912 436.041 151.735 439.524 153.381C443.045 154.988 446.03 157.208 448.479 160.04C450.89 162.872 452.746 166.22 454.047 170.086C455.349 173.913 455.999 178.065 455.999 182.543V183.806C455.999 188.283 455.349 192.436 454.047 196.263C452.746 200.09 450.89 203.419 448.479 206.252C446.03 209.084 443.064 211.303 439.581 212.911C436.098 214.518 432.176 215.322 427.813 215.322C423.412 215.322 419.451 214.518 415.93 212.911C412.447 211.303 409.5 209.084 407.089 206.252C404.64 203.419 402.765 200.09 401.463 196.263C400.162 192.436 399.512 188.283 399.512 183.806V182.543ZM410.132 183.806C410.132 186.867 410.495 189.795 411.223 192.589C411.95 195.344 413.06 197.775 414.552 199.879C416.006 201.984 417.843 203.649 420.063 204.874C422.283 206.098 424.866 206.711 427.813 206.711C430.721 206.711 433.266 206.098 435.448 204.874C437.668 203.649 439.524 201.984 441.016 199.879C442.471 197.775 443.561 195.344 444.288 192.589C445.016 189.795 445.379 186.867 445.379 183.806V182.543C445.379 179.519 444.996 176.63 444.231 173.875C443.504 171.081 442.413 168.631 440.959 166.527C439.466 164.422 437.61 162.757 435.39 161.532C433.209 160.269 430.645 159.638 427.698 159.638C424.751 159.638 422.187 160.269 420.006 161.532C417.824 162.757 416.006 164.422 414.552 166.527C413.06 168.631 411.95 171.081 411.223 173.875C410.495 176.63 410.132 179.519 410.132 182.543V183.806Z" fill="white"/>
<path d="M373.161 197.698C373.161 196.435 372.912 195.306 372.415 194.311C371.917 193.278 371.075 192.34 369.889 191.498C368.702 190.656 367.133 189.891 365.181 189.202C363.23 188.475 360.799 187.824 357.891 187.25C354.332 186.523 351.079 185.643 348.132 184.609C345.223 183.576 342.736 182.332 340.669 180.878C338.564 179.462 336.938 177.797 335.79 175.884C334.641 173.932 334.067 171.674 334.067 169.11C334.067 166.584 334.661 164.23 335.847 162.049C337.033 159.829 338.698 157.897 340.841 156.251C342.984 154.605 345.529 153.304 348.476 152.347C351.461 151.39 354.734 150.912 358.293 150.912C362.12 150.912 365.564 151.41 368.626 152.405C371.687 153.4 374.29 154.777 376.433 156.538C378.576 158.298 380.222 160.365 381.37 162.738C382.556 165.072 383.15 167.598 383.15 170.315H372.529C372.529 168.976 372.185 167.675 371.496 166.412C370.807 165.111 369.85 163.962 368.626 162.967C367.401 161.972 365.909 161.169 364.148 160.556C362.426 159.944 360.474 159.638 358.293 159.638C356.035 159.638 354.045 159.887 352.322 160.384C350.639 160.882 349.242 161.551 348.132 162.393C346.984 163.235 346.123 164.211 345.549 165.321C344.975 166.431 344.688 167.579 344.688 168.765C344.688 169.99 344.917 171.081 345.376 172.038C345.836 172.994 346.639 173.855 347.787 174.621C348.897 175.386 350.39 176.075 352.265 176.687C354.179 177.3 356.59 177.893 359.498 178.467C363.325 179.271 366.751 180.208 369.774 181.28C372.797 182.313 375.342 183.557 377.409 185.011C379.476 186.504 381.045 188.226 382.116 190.178C383.226 192.13 383.781 194.388 383.781 196.952C383.781 199.707 383.15 202.214 381.887 204.472C380.662 206.73 378.94 208.663 376.72 210.27C374.5 211.877 371.841 213.121 368.741 214.001C365.641 214.882 362.254 215.322 358.58 215.322C354.37 215.322 350.619 214.767 347.328 213.657C344.037 212.509 341.262 210.997 339.004 209.122C336.708 207.285 334.948 205.142 333.723 202.692C332.537 200.243 331.943 197.698 331.943 195.057H342.563C342.717 197.239 343.291 199.076 344.286 200.568C345.319 202.061 346.601 203.266 348.132 204.185C349.624 205.103 351.289 205.754 353.126 206.137C354.963 206.519 356.781 206.711 358.58 206.711C361.412 206.711 363.88 206.385 365.985 205.735C368.09 205.046 369.736 204.108 370.922 202.922C371.649 202.195 372.204 201.391 372.587 200.511C372.97 199.631 373.161 198.693 373.161 197.698Z" fill="white"/>
<path d="M302.207 214.176L301.576 205.622C299.509 208.684 296.926 211.076 293.826 212.798C290.726 214.482 287.148 215.324 283.091 215.324C279.838 215.324 276.891 214.826 274.25 213.831C271.61 212.798 269.352 211.21 267.477 209.067C265.601 206.924 264.147 204.206 263.114 200.915C262.119 197.585 261.621 193.605 261.621 188.975V152.062H272.241V189.089C272.241 192.457 272.509 195.251 273.045 197.471C273.581 199.69 274.384 201.451 275.456 202.752C276.528 204.091 277.829 205.029 279.36 205.565C280.929 206.101 282.727 206.369 284.756 206.369C287.128 206.369 289.253 206.101 291.128 205.565C293.003 204.991 294.63 204.206 296.007 203.211C297.155 202.408 298.15 201.451 298.992 200.341C299.873 199.193 300.6 197.949 301.174 196.61V152.062H311.851V214.176H302.207Z" fill="white"/>
<path d="M192.332 126H224.078V204.991H244.342V214.176H192.332V204.991H213.457V135.242H192.332V126Z" fill="white"/>
<path d="M120 238.054V152.06H129.702L130.218 158.834C131.06 157.763 131.979 156.806 132.974 155.964C133.969 155.084 135.04 154.337 136.188 153.725C137.796 152.807 139.575 152.118 141.527 151.658C143.517 151.161 145.641 150.912 147.899 150.912C151.879 150.912 155.4 151.697 158.462 153.266C161.524 154.835 164.088 157.016 166.154 159.81C168.221 162.604 169.79 165.952 170.862 169.856C171.933 173.721 172.469 177.969 172.469 182.6V183.806C172.469 188.245 171.933 192.398 170.862 196.263C169.79 200.09 168.221 203.419 166.154 206.252C164.088 209.084 161.524 211.303 158.462 212.911C155.439 214.518 151.975 215.322 148.072 215.322C145.699 215.322 143.479 215.073 141.412 214.575C139.384 214.078 137.547 213.37 135.901 212.451C134.906 211.877 133.969 211.246 133.089 210.557C132.208 209.83 131.386 209.045 130.62 208.203V238.054H120ZM161.849 182.6C161.849 179.577 161.505 176.707 160.816 173.989C160.165 171.234 159.151 168.804 157.773 166.699C156.357 164.632 154.578 162.987 152.434 161.762C150.291 160.537 147.727 159.925 144.742 159.925C143.096 159.925 141.566 160.116 140.15 160.499C138.772 160.882 137.528 161.437 136.418 162.164C135.193 162.891 134.103 163.79 133.146 164.862C132.189 165.933 131.347 167.12 130.62 168.421V198.329C131.271 199.478 132.017 200.549 132.859 201.544C133.701 202.539 134.658 203.381 135.729 204.07C136.954 204.874 138.313 205.505 139.805 205.964C141.336 206.424 143.02 206.653 144.857 206.653C147.804 206.653 150.349 206.041 152.492 204.816C154.635 203.553 156.395 201.87 157.773 199.765C159.151 197.66 160.165 195.23 160.816 192.474C161.505 189.719 161.849 186.829 161.849 183.806V182.6Z" fill="white"/>
</svg>
